# xmcd
#
# Track frame offsets: 
#        150
#        65673
#        148742
#
# Disc length: 2366 seconds
#
# Revision: 2
# Processed by: cddbd v1.5.2PL0 Copyright (c) Steve Scherf et al.
# Submitted via: ExactAudioCopy v1.0b3
#
DISCID=2b093c03
DTITLE=Date Course Pentagon Royal Garden - Alter War In Tokyo -disc1-
DYEAR=2011
DGENRE=Jazz
TTITLE0=Perfect Days For Jungle Cruise
TTITLE1=Catch 22
TTITLE2=New York Girl
EXTD=YEAR: 2011
EXTT0=
EXTT1=
EXTT2=
PLAYORDER=
